<svg width="368" height="455" viewBox="0 0 368 455" fill="none" xmlns="http://www.w3.org/2000/svg">
<g filter="url(#filter0_f_16:494)">
<path d="M9.62891 36.2766L53.3297 5H312.085L329.606 17.5395H348.361L362.458 27.6287V403.411H213.432L185.439 423.445H53.3297L23.3232 401.969H9.62891V36.2766Z" stroke="#FF15BD" stroke-width="0.85293" stroke-miterlimit="10"/>
<path d="M9.62891 36.2766L53.3297 5H312.085L329.606 17.5395H348.361L362.458 27.6287V403.411H213.432L185.439 423.445H53.3297L23.3232 401.969H9.62891V36.2766Z" stroke="url(#paint0_linear_16:494)" stroke-opacity="0.9" stroke-width="0.85293" stroke-miterlimit="10"/>
</g>
<g filter="url(#filter1_f_16:494)">
<path d="M9.62891 36.2766L53.3297 5H312.085L329.606 17.5395H348.361L362.458 27.6287V403.411H213.432L185.439 423.445H53.3297L23.3232 401.969H9.62891V36.2766Z" stroke="#FF15BD" stroke-width="0.56862" stroke-miterlimit="10"/>
<path d="M9.62891 36.2766L53.3297 5H312.085L329.606 17.5395H348.361L362.458 27.6287V403.411H213.432L185.439 423.445H53.3297L23.3232 401.969H9.62891V36.2766Z" stroke="url(#paint1_linear_16:494)" stroke-width="0.56862" stroke-miterlimit="10"/>
</g>
<path d="M8.62891 36.2766L52.3297 5H311.085L328.606 17.5395H347.361L361.458 27.6287V403.411H212.432L184.439 423.445H52.3297L22.3232 401.969H8.62891V36.2766Z" fill="url(#paint2_linear_16:494)"/>
<path d="M8.62891 36.2766L52.3297 5H311.085L328.606 17.5395H347.361L361.458 27.6287V403.411H212.432L184.439 423.445H52.3297L22.3232 401.969H8.62891V36.2766Z" stroke="#FF15BD" stroke-width="0.56862" stroke-miterlimit="10"/>
<path d="M8.62891 36.2766L52.3297 5H311.085L328.606 17.5395H347.361L361.458 27.6287V403.411H212.432L184.439 423.445H52.3297L22.3232 401.969H8.62891V36.2766Z" stroke="url(#paint3_linear_16:494)" stroke-opacity="0.9" stroke-width="0.56862" stroke-miterlimit="10"/>
<path d="M42.4283 415.117H46.9053V410.365H42.4283V415.117Z" fill="#8F59FE"/>
<path opacity="0.64" d="M42.4283 407.817H46.9053V403.064H42.4283V407.817Z" fill="#8F59FE"/>
<path opacity="0.4" d="M42.4283 400.516H46.9053V395.764H42.4283V400.516Z" fill="#8F59FE"/>
<path opacity="0.34" d="M42.4283 393.215H46.9053V388.463H42.4283V393.215Z" fill="#8F59FE"/>
<path opacity="0.22" d="M42.4283 385.845H46.9053V381.093H42.4283V385.845Z" fill="#8F59FE"/>
<path opacity="0.15" d="M42.4283 378.544H46.9053V373.792H42.4283V378.544Z" fill="#8F59FE"/>
<path opacity="0.4" d="M57.0991 400.515H61.5762V395.763H57.0991V400.515Z" fill="#8F59FE"/>
<path opacity="0.34" d="M57.0991 393.214H61.5762V388.462H57.0991V393.214Z" fill="#8F59FE"/>
<path opacity="0.22" d="M57.0991 385.844H61.5762V381.092H57.0991V385.844Z" fill="#8F59FE"/>
<path opacity="0.15" d="M57.0991 378.543H61.5762V373.791H57.0991V378.543Z" fill="#8F59FE"/>
<path opacity="0.34" d="M49.8672 393.215H54.3442V388.463H49.8672V393.215Z" fill="#8F59FE"/>
<path opacity="0.22" d="M49.8672 385.845H54.3442V381.092H49.8672V385.845Z" fill="#8F59FE"/>
<path opacity="0.15" d="M49.8672 378.544H54.3442V373.791H49.8672V378.544Z" fill="#8F59FE"/>
<path opacity="0.22" d="M64.3306 385.844H68.8076V381.092H64.3306V385.844Z" fill="#8F59FE"/>
<path opacity="0.15" d="M64.3311 378.544H68.8081V373.791H64.3311V378.544Z" fill="#8F59FE"/>
<path d="M20.2495 436.124H24.7266V429.857H20.2495V436.124Z" fill="#8F59FE"/>
<path opacity="0.64" d="M20.2495 426.413H24.7266V420.145H20.2495V426.413Z" fill="#8F59FE"/>
<path opacity="0.4" d="M20.2495 416.702H24.7266V410.434H20.2495V416.702Z" fill="#8F59FE"/>
<path opacity="0.34" d="M20.2495 406.99H24.7266V400.722H20.2495V406.99Z" fill="#8F59FE"/>
<path opacity="0.22" d="M20.2495 397.209H24.7266V390.941H20.2495V397.209Z" fill="#8F59FE"/>
<path opacity="0.15" d="M20.2495 387.498H24.7266V381.23H20.2495V387.498Z" fill="#8F59FE"/>
<path d="M1.92839 374.824V443.356H75.6265V451.139H9.50483V366.352" stroke="#8F59FE" stroke-width="0.56862" stroke-miterlimit="10"/>
<path d="M9.5739 364.424C8.50879 364.424 7.64535 365.287 7.64535 366.352C7.64535 367.417 8.50879 368.281 9.5739 368.281C10.639 368.281 11.5024 367.417 11.5024 366.352C11.5024 365.287 10.639 364.424 9.5739 364.424Z" fill="#8F59FE"/>
<path d="M1.92839 372.827C0.863279 372.827 -0.000154972 373.69 -0.000154972 374.756C-0.000154972 375.821 0.863279 376.684 1.92839 376.684C2.9935 376.684 3.85693 375.821 3.85693 374.756C3.85693 373.69 2.9935 372.827 1.92839 372.827Z" fill="#8F59FE"/>
<path d="M9.5051 406.644L12.4668 409.606V443.355H9.5051V406.644Z" fill="#8F59FE"/>
<path d="M45.5962 451.415L42.6345 454.376H8.81604V451.415H45.5962Z" fill="#8F59FE"/>
<path d="M276 14.4236L268.909 9.42358H263L270.198 14.4236H276Z" fill="#15A0FF"/>
<path d="M286 14.4236L278.909 9.42358H273L280.091 14.4236H286Z" fill="#15A0FF"/>
<path d="M295 14.4236L288.4 9.42358H283L289.6 14.4236H295Z" fill="#15A0FF"/>
<path d="M305 14.4236L297.909 9.42358H292L299.198 14.4236H305Z" fill="#15A0FF"/>
<path d="M315 14.4236L307.802 9.42358H302L309.091 14.4236H315Z" fill="#15A0FF"/>
<path d="M324 14.4236L317.4 9.42358H312L318.6 14.4236H324Z" fill="#15A0FF"/>
<path d="M201.493 398.548L221.43 384.424H232.305L212.167 398.693L201.493 398.548Z" fill="#15A0FF"/>
<path d="M57.0994 8.02661H48.8425L22.4609 26.9079V32.9614L57.0994 8.02661Z" fill="#15A0FF"/>
<path d="M211.965 395.81H337.429L352.734 384.712" stroke="#15A0FF" stroke-width="0.233589" stroke-miterlimit="10"/>
<defs>
<filter id="filter0_f_16:494" x="4.93798" y="0.308834" width="362.211" height="427.827" filterUnits="userSpaceOnUse" color-interpolation-filters="sRGB">
<feFlood flood-opacity="0" result="BackgroundImageFix"/>
<feBlend mode="normal" in="SourceGraphic" in2="BackgroundImageFix" result="shape"/>
<feGaussianBlur stdDeviation="2.13233" result="effect1_foregroundBlur_16:494"/>
</filter>
<filter id="filter1_f_16:494" x="5.08007" y="0.450924" width="361.927" height="427.543" filterUnits="userSpaceOnUse" color-interpolation-filters="sRGB">
<feFlood flood-opacity="0" result="BackgroundImageFix"/>
<feBlend mode="normal" in="SourceGraphic" in2="BackgroundImageFix" result="shape"/>
<feGaussianBlur stdDeviation="2.13233" result="effect1_foregroundBlur_16:494"/>
</filter>
<linearGradient id="paint0_linear_16:494" x1="358.193" y1="5.00004" x2="65.1297" y2="-33.9048" gradientUnits="userSpaceOnUse">
<stop offset="0.00393049" stop-color="#2958FF"/>
<stop offset="0.467083" stop-color="#E248FB"/>
<stop offset="1" stop-color="#F71C1C"/>
</linearGradient>
<linearGradient id="paint1_linear_16:494" x1="358.193" y1="5.00004" x2="65.1297" y2="-33.9048" gradientUnits="userSpaceOnUse">
<stop offset="0.00393049" stop-color="#2958FF"/>
<stop offset="0.467083" stop-color="#E248FB"/>
<stop offset="1" stop-color="#F71C1C"/>
</linearGradient>
<linearGradient id="paint2_linear_16:494" x1="8.72134" y1="75.8821" x2="361.429" y2="75.8821" gradientUnits="userSpaceOnUse">
<stop stop-color="#702AE3" stop-opacity="0.7"/>
<stop offset="1" stop-color="#0F3EB7" stop-opacity="0.1"/>
</linearGradient>
<linearGradient id="paint3_linear_16:494" x1="357.193" y1="5.00004" x2="64.1297" y2="-33.9048" gradientUnits="userSpaceOnUse">
<stop offset="0.00393049" stop-color="#2958FF"/>
<stop offset="0.467083" stop-color="#E248FB"/>
<stop offset="1" stop-color="#F71C1C"/>
</linearGradient>
</defs>
</svg>
